<svg width="141" height="64" viewBox="0 0 141 64" fill="none" xmlns="http://www.w3.org/2000/svg">
<line x1="38.5" y1="0.5" x2="102.5" y2="0.5" stroke="white"/>
<path d="M2.7 42V24.5H9.075C10.2083 24.5 11.2667 24.7167 12.25 25.15C13.2333 25.5833 14.0917 26.1917 14.825 26.975C15.575 27.7417 16.1583 28.6583 16.575 29.725C17.0083 30.7917 17.225 31.9667 17.225 33.25C17.225 34.5167 17.0083 35.6917 16.575 36.775C16.1583 37.8417 15.575 38.7667 14.825 39.55C14.0917 40.3167 13.2333 40.9167 12.25 41.35C11.2667 41.7833 10.2083 42 9.075 42H2.7ZM3.95 41.175L3.6 40.75H8.95C9.9 40.75 10.7917 40.5667 11.625 40.2C12.475 39.8333 13.2167 39.3167 13.85 38.65C14.4833 37.9667 14.9833 37.175 15.35 36.275C15.7167 35.3583 15.9 34.35 15.9 33.25C15.9 32.15 15.7167 31.15 15.35 30.25C14.9833 29.3333 14.4833 28.5417 13.85 27.875C13.2167 27.1917 12.475 26.6667 11.625 26.3C10.7917 25.9333 9.9 25.75 8.95 25.75H3.525L3.95 25.375V41.175ZM19.8152 42V40.75H22.6402V25.75H19.8152V24.5H26.7152V25.75H23.8902V40.75H26.7152V42H19.8152ZM35.943 42.25C35.1096 42.25 34.3096 42.125 33.543 41.875C32.793 41.625 32.093 41.2583 31.443 40.775C30.8096 40.275 30.2513 39.6667 29.768 38.95L30.668 38.025C31.4013 39.0917 32.218 39.8583 33.118 40.325C34.018 40.775 34.9763 41 35.993 41C36.8763 41 37.668 40.85 38.368 40.55C39.068 40.2333 39.618 39.8083 40.018 39.275C40.4346 38.725 40.643 38.1083 40.643 37.425C40.643 36.9583 40.5596 36.5583 40.393 36.225C40.243 35.8917 40.018 35.6 39.718 35.35C39.4346 35.1 39.0846 34.8833 38.668 34.7C38.268 34.5 37.8096 34.325 37.293 34.175C36.793 34.0083 36.2513 33.8417 35.668 33.675C34.868 33.4417 34.1513 33.2 33.518 32.95C32.9013 32.7 32.368 32.4 31.918 32.05C31.4846 31.7 31.1513 31.2833 30.918 30.8C30.7013 30.3167 30.593 29.725 30.593 29.025C30.593 28.3417 30.7263 27.7167 30.993 27.15C31.2763 26.5833 31.668 26.0917 32.168 25.675C32.668 25.2583 33.243 24.9417 33.893 24.725C34.5596 24.4917 35.2763 24.375 36.043 24.375C36.943 24.375 37.7263 24.5083 38.393 24.775C39.0763 25.025 39.6763 25.3833 40.193 25.85C40.7096 26.3167 41.1763 26.8667 41.593 27.5L40.668 28.4C40.3013 27.8333 39.893 27.3417 39.443 26.925C38.993 26.5083 38.4846 26.1917 37.918 25.975C37.368 25.7417 36.743 25.625 36.043 25.625C35.243 25.625 34.5263 25.775 33.893 26.075C33.2763 26.3583 32.7846 26.7583 32.418 27.275C32.0513 27.7917 31.868 28.3833 31.868 29.05C31.868 29.5167 31.9513 29.925 32.118 30.275C32.3013 30.625 32.5763 30.9333 32.943 31.2C33.3263 31.45 33.8013 31.6833 34.368 31.9C34.9513 32.1 35.643 32.3 36.443 32.5C37.2596 32.7 38.0013 32.9333 38.668 33.2C39.3346 33.4667 39.9096 33.7833 40.393 34.15C40.893 34.5167 41.268 34.9583 41.518 35.475C41.7846 35.9917 41.918 36.6167 41.918 37.35C41.918 38.2833 41.6596 39.125 41.143 39.875C40.6263 40.6083 39.918 41.1917 39.018 41.625C38.118 42.0417 37.093 42.25 35.943 42.25ZM53.3123 42.25C52.029 42.25 50.8456 42.0333 49.7623 41.6C48.6956 41.15 47.7623 40.525 46.9623 39.725C46.179 38.9083 45.5706 37.95 45.1373 36.85C44.704 35.75 44.4873 34.55 44.4873 33.25C44.4873 31.95 44.6956 30.7667 45.1123 29.7C45.529 28.6167 46.1206 27.675 46.8873 26.875C47.6706 26.075 48.579 25.4583 49.6123 25.025C50.6623 24.5917 51.8123 24.375 53.0623 24.375C53.8456 24.375 54.6373 24.5083 55.4373 24.775C56.2373 25.025 56.979 25.375 57.6623 25.825C58.3456 26.275 58.9123 26.7917 59.3623 27.375L58.4373 28.35C58.0706 27.8167 57.5956 27.35 57.0123 26.95C56.429 26.5333 55.7956 26.2083 55.1123 25.975C54.429 25.7417 53.7456 25.625 53.0623 25.625C52.0123 25.625 51.0373 25.8167 50.1373 26.2C49.254 26.5667 48.4873 27.0917 47.8373 27.775C47.204 28.4583 46.704 29.2667 46.3373 30.2C45.9873 31.1333 45.8123 32.15 45.8123 33.25C45.8123 34.3667 45.9956 35.4 46.3623 36.35C46.729 37.3 47.2456 38.125 47.9123 38.825C48.5956 39.5083 49.3873 40.0417 50.2873 40.425C51.204 40.8083 52.2123 41 53.3123 41C53.979 41 54.6373 40.9083 55.2873 40.725C55.954 40.525 56.554 40.2583 57.0873 39.925C57.6206 39.575 58.0456 39.1833 58.3623 38.75L59.0373 39.85C58.6373 40.3167 58.1206 40.7333 57.4873 41.1C56.8706 41.45 56.1956 41.7333 55.4623 41.95C54.7456 42.15 54.029 42.25 53.3123 42.25ZM69.908 42.25C68.658 42.25 67.508 42.0333 66.458 41.6C65.4247 41.15 64.5163 40.5333 63.733 39.75C62.9663 38.95 62.3747 38.0083 61.958 36.925C61.5413 35.825 61.333 34.625 61.333 33.325C61.333 32.025 61.5413 30.8333 61.958 29.75C62.3747 28.65 62.9663 27.7 63.733 26.9C64.5163 26.1 65.4247 25.4833 66.458 25.05C67.508 24.6 68.658 24.375 69.908 24.375C71.158 24.375 72.308 24.6 73.358 25.05C74.408 25.4833 75.3163 26.1 76.083 26.9C76.8497 27.7 77.4413 28.65 77.858 29.75C78.2913 30.8333 78.508 32.025 78.508 33.325C78.508 34.625 78.2913 35.825 77.858 36.925C77.4413 38.0083 76.8497 38.95 76.083 39.75C75.3163 40.5333 74.408 41.15 73.358 41.6C72.308 42.0333 71.158 42.25 69.908 42.25ZM69.908 41C70.958 41 71.9247 40.8167 72.808 40.45C73.708 40.0667 74.483 39.5333 75.133 38.85C75.783 38.15 76.283 37.3333 76.633 36.4C76.9997 35.4667 77.183 34.4417 77.183 33.325C77.183 32.2083 76.9997 31.1833 76.633 30.25C76.283 29.3 75.783 28.4833 75.133 27.8C74.483 27.1167 73.708 26.5833 72.808 26.2C71.9247 25.8167 70.958 25.625 69.908 25.625C68.858 25.625 67.883 25.8167 66.983 26.2C66.0997 26.5833 65.333 27.1167 64.683 27.8C64.0497 28.4833 63.5497 29.3 63.183 30.25C62.833 31.1833 62.658 32.2083 62.658 33.325C62.658 34.4417 62.833 35.4667 63.183 36.4C63.5497 37.3333 64.0497 38.15 64.683 38.85C65.333 39.5333 66.0997 40.0667 66.983 40.45C67.883 40.8167 68.858 41 69.908 41ZM86.2039 42L79.6289 24.5H81.0289L85.5539 36.6C85.7539 37.1167 85.9206 37.575 86.0539 37.975C86.2039 38.375 86.3456 38.7583 86.4789 39.125C86.6122 39.4917 86.7456 39.875 86.8789 40.275C87.0122 40.675 87.1622 41.1417 87.3289 41.675H86.6539C86.8872 40.9583 87.0872 40.3417 87.2539 39.825C87.4372 39.2917 87.6206 38.775 87.8039 38.275C87.9872 37.7583 88.2206 37.15 88.5039 36.45L93.2039 24.5H94.5539L87.6539 42H86.2039ZM97.8904 42V24.5H108.065V25.75H99.1404V40.75H107.965V42H97.8904ZM98.4904 33.6V32.35H106.64V33.6H98.4904ZM112.514 42V24.5H118.814C119.848 24.5 120.764 24.7333 121.564 25.2C122.381 25.6667 123.023 26.3 123.489 27.1C123.956 27.8833 124.189 28.775 124.189 29.775C124.189 30.775 123.964 31.65 123.514 32.4C123.081 33.15 122.473 33.7417 121.689 34.175C120.923 34.5917 120.048 34.8 119.064 34.8H113.764V42H112.514ZM123.414 42L119.064 34.475L120.114 33.825L124.864 42H123.414ZM113.764 33.55H119.214C119.931 33.55 120.564 33.3917 121.114 33.075C121.664 32.7583 122.089 32.3167 122.389 31.75C122.706 31.1833 122.864 30.5417 122.864 29.825C122.864 29.0417 122.689 28.3417 122.339 27.725C121.989 27.1083 121.498 26.625 120.864 26.275C120.248 25.925 119.539 25.75 118.739 25.75H113.764V33.55ZM131.768 42V33.275L131.943 34.5L124.868 24.5H126.418L132.618 33.3H132.193L137.943 24.5H139.393L132.618 34.775L132.993 33.075V42H131.768Z" fill="white"/>
<line x1="38.5" y1="63.5" x2="102.5" y2="63.5" stroke="white"/>
</svg>
